<svg xmlns="http://www.w3.org/2000/svg" viewBox="150.7 139 448.6 82.9" style="fill:#231f20">
    <g id="Layer">
        <path d="m440.1 185v31.4h-16.3v-31.5l-27.6-44.2h18.1l18.2 29.5 18.8-29.5h16.6c0 0-27.8 44.3-27.8 44.3z"/>
        <path fill-rule="evenodd" d="m468.7 178c0-25.8 14-38.7 36.7-38.7 22.7 0 37 13.2 37 38.2 0 25-14.6 40.3-37.3 40.3-22.7 0-36.4-13.7-36.4-39.8zm57-0.3c0-16.9-7.4-24.9-20.2-24.9-12.7-0.1-20 8-20 25.2 0 17.2 7.6 26.2 19.8 26.2 12.3 0 20.4-9.1 20.4-26.5z"/>
        <path d="m599.3 203.2v13.2h-44.8v-75.7h16.3v62.5z"/>
    </g>
    <g id="Layer">
        <path d="m248 185.3v-45.1h16.8v45.1c0 17.9-14.5 32.5-32.5 32.5-17.9 0-32.5-14.6-32.5-32.5v-45.1h16.8v45.1c0 8.6 7.1 15.7 15.7 15.7 8.7 0 15.7-7.1 15.7-15.7z"/>
        <path d="m182.9 157v30.8c0 15.9-10.3 29.3-24.5 34.1l-5.4-16c7.6-2.5 13.1-9.7 13.1-18.1v-34.1h-15.4v-13.5h32.2z"/>
        <path d="m367.9 153.7v34.1c0 8.4 5.5 15.6 13.1 18.1l-5.4 16c-14.3-4.8-24.6-18.2-24.6-34.1v-47.6h16.9 15.4v13.5c0 0-15.4 0-15.4 0z"/>
        <path d="m296.3 159.8c0 14.2 41.3 8.8 41.3 34.7 0 14-12 23.3-30.2 23.3-16.7 0-27.8-7-30-20.3l15.8-4.1c1.4 6.8 7.4 11 16.5 11 6.7 0 11.1-2.7 11.1-7.2 0-13.8-41.3-8.1-41.3-35.1 0-16 14.5-23.1 29.2-23.1 12.1 0 25.3 4.8 26.9 20.8l-14.9 3.9c-1.4-7.8-6.6-11.2-13.9-11.2-5.7 0-10.5 2.3-10.5 7.3z"/>
    </g>
</svg>
